<svg width="32" height="32" viewBox="0 0 36 36" fill="none" xmlns="http://www.w3.org/2000/svg">
<rect width="36" height="36" rx="8" fill="#0E0F11"/>
<path d="M12.86 22.008C12.86 14.903 7.105 9.148 0 9.148V15.731C3.464 15.731 6.277 18.536 6.277 22.008C6.277 25.48 3.472 28.277 0 28.277V34.86C7.105 34.86 12.86 29.105 12.86 22.008Z" fill="#0065FF" transform="translate(2, 0)"/>
<path d="M32.881 34.86V28.277C29.417 28.277 26.604 25.472 26.604 22.008C26.604 18.544 29.409 15.731 32.881 15.731V9.148C25.776 9.148 20.021 14.903 20.021 22.008C20.021 29.113 25.776 34.86 32.881 34.86Z" fill="#0065FF" transform="translate(0, 0)"/>
<rect x="11.695" y="0" width="9.493" height="9.493" fill="#0065FF" transform="translate(0, -1)"/>
</svg>
