<svg width="136" height="37" viewBox="0 0 136 37" fill="none" xmlns="http://www.w3.org/2000/svg">
<g clip-path="url(#clip0_1439_1618)">
<path d="M60.1043 12.6671C61.5752 11.4294 62.3388 9.43605 62.3388 7.16144C62.3388 3.02212 59.9275 0.00805664 56.182 0.00805664H50.7085V14.0255H55.9409C57.7092 14.0255 59.0595 13.5352 60.0963 12.6752L60.1043 12.6671ZM53.5538 11.566V2.42735H55.8284C58.2396 2.42735 59.4533 4.37242 59.4533 7.1534C59.4533 9.93438 58.4165 11.566 55.748 11.566H53.5538Z" fill="#18191A"/>
<path d="M70.6257 14.3148C73.7442 14.3148 75.8822 12 75.8822 9.002C75.8822 6.00401 73.7442 3.68921 70.6257 3.68921C67.5071 3.68921 65.3691 6.00401 65.3691 9.002C65.3691 12 67.5071 14.3148 70.6257 14.3148ZM70.6257 5.70662C72.2492 5.70662 73.1736 7.04085 73.1736 9.002C73.1736 10.9632 72.2492 12.2733 70.6257 12.2733C69.0021 12.2733 68.0778 10.9632 68.0778 9.002C68.0778 7.04085 68.978 5.70662 70.6257 5.70662Z" fill="#18191A"/>
<path d="M81.886 12.7636H81.9262C82.5129 13.7039 83.5176 14.3148 84.9241 14.3148C87.456 14.3148 89.176 12.2572 89.176 9.00201C89.176 5.74682 87.3756 3.68921 84.8438 3.68921C83.4533 3.68921 82.5852 4.34025 82.0387 5.17615H81.9824V0H79.314V14.0174H81.886V12.7636ZM84.2329 5.84327C85.7199 5.84327 86.4673 7.1373 86.4673 9.00201C86.4673 10.8667 85.7038 12.0804 84.3294 12.0804C82.8424 12.0804 81.9181 10.9069 81.9181 9.05827C81.9181 7.20964 82.545 5.84327 84.2329 5.84327Z" fill="#18191A"/>
<path d="M95.2693 9.11464C95.2693 7.00078 96.5231 6.07647 98.2673 6.25329H98.3235V3.92242C98.1628 3.86615 97.994 3.84204 97.6966 3.84204C96.5231 3.84204 95.8319 4.42878 95.2291 5.5701H95.1728V3.9626H92.6008V14.0175H95.2693V9.11464Z" fill="#18191A"/>
<path d="M106.111 14.3148C108.699 14.3148 110.29 12.8037 110.66 11.0194H108.032C107.734 11.783 107.131 12.2572 106.095 12.2572C104.584 12.2572 103.723 11.2927 103.523 9.74949H110.813C110.813 6.16476 109.085 3.68921 105.853 3.68921C102.912 3.68921 100.894 6.00401 100.894 8.98593C100.894 11.9678 102.775 14.3148 106.111 14.3148ZM105.902 5.74681C107.115 5.74681 107.959 6.63094 108.04 7.90086H103.571C103.804 6.59075 104.495 5.74681 105.902 5.74681Z" fill="#18191A"/>
<path d="M117.797 7.94109C115.563 8.25455 113.754 8.96185 113.754 11.1722C113.754 13.1735 115.209 14.2505 117.267 14.2505C118.995 14.2505 119.718 13.6638 120.224 12.9002H120.265C120.321 13.3503 120.425 13.8245 120.578 14.0174H123.15V13.921C122.917 13.7442 122.796 13.2941 122.796 12.5305V7.41061C122.796 5.05562 121.583 3.70532 118.561 3.70532C115.538 3.70532 114.309 5.25656 114.228 7.01677H116.599C116.68 6.05227 117.283 5.60217 118.545 5.60217C119.662 5.60217 120.232 6.07639 120.232 6.79976C120.232 7.56332 119.469 7.69996 117.805 7.93305L117.797 7.94109ZM120.289 8.96185V10.4729C120.289 11.4535 119.445 12.3939 117.918 12.3939C116.977 12.3939 116.35 12.0643 116.35 11.1159C116.35 10.1675 117.033 9.86205 118.432 9.54859C119.099 9.38784 119.822 9.23513 120.297 8.96185H120.289Z" fill="#18191A"/>
<path d="M129.347 8.31076C129.347 6.93634 130.207 5.99595 131.388 5.99595C132.57 5.99595 133.133 6.75952 133.133 7.83654V14.0093H135.801V7.4427C135.801 5.24847 134.411 3.68115 132.329 3.68115C130.954 3.68115 130.038 4.25182 129.347 5.32884H129.291V3.95443H126.687V14.0093H129.355V8.30272L129.347 8.31076Z" fill="#18191A"/>
<path d="M12.86 24.0082C12.86 16.903 7.10516 11.1482 0 11.1482V17.7309C3.46416 17.7309 6.27729 20.536 6.27729 24.0082C6.27729 27.4804 3.4722 30.2775 0 30.2775V36.8602C7.10516 36.8602 12.86 31.1053 12.86 24.0082Z" fill="#0065FF"/>
<path d="M32.8815 36.8602V30.2775C29.4173 30.2775 26.6042 27.4724 26.6042 24.0082C26.6042 20.544 29.4093 17.7309 32.8815 17.7309V11.1482C25.7763 11.1482 20.0215 16.903 20.0215 24.0082C20.0215 31.1134 25.7763 36.8602 32.8815 36.8602Z" fill="#0065FF"/>
<path d="M21.1876 0.779541H11.6953V10.2718H21.1876V0.779541Z" fill="#0065FF"/>
<path d="M108.9 22.5452H106.232V24.9403H108.9V22.5452Z" fill="#18191A"/>
<path d="M56.8497 36.8598C58.7947 36.8598 60.145 36.2731 61.1015 35.3729C62.0419 34.4887 62.5723 33.2911 62.6527 32.0614H59.8717C59.6949 33.5323 58.5215 34.5289 56.8497 34.5289C54.4947 34.5289 53.0077 32.4713 53.0077 29.61C53.0077 26.7486 54.2455 24.6669 56.8336 24.6669C58.4813 24.6669 59.5422 25.5912 59.7914 26.9978H62.6125C62.3152 24.3293 60.2817 22.2717 56.8255 22.2717C52.6862 22.2717 50.0981 25.4465 50.0981 29.6019C50.0981 33.7573 52.9032 36.8598 56.8416 36.8598H56.8497Z" fill="#18191A"/>
<path d="M69.6444 30.486C67.41 30.7995 65.6016 31.5068 65.6016 33.7171C65.6016 35.7184 67.0563 36.7955 69.1139 36.7955C70.842 36.7955 71.5654 36.2087 72.0718 35.4451H72.1119C72.1682 35.8952 72.2727 36.3695 72.4254 36.5624H74.9974V36.4659C74.7643 36.2891 74.6438 35.839 74.6438 35.0754V29.9555C74.6438 27.6005 73.4301 26.2502 70.408 26.2502C67.3859 26.2502 66.1561 27.8015 66.0758 29.5617H68.4468C68.5272 28.5972 69.13 28.1471 70.3919 28.1471C71.5091 28.1471 72.0798 28.6213 72.0798 29.3447C72.0798 30.1082 71.3162 30.2449 69.6525 30.478L69.6444 30.486ZM72.1361 31.5068V33.0178C72.1361 33.9984 71.2921 34.9388 69.765 34.9388C68.8246 34.9388 68.1977 34.6093 68.1977 33.6608C68.1977 32.7124 68.8809 32.407 70.2794 32.0935C70.9465 31.9408 71.6699 31.78 72.1441 31.5068H72.1361Z" fill="#18191A"/>
<path d="M73.3188 22.7219H71.7917C71.7113 23.2524 71.221 23.6623 70.4414 23.6623C69.6618 23.6623 69.1634 23.2926 69.0911 22.7219H67.564C67.6604 24.2089 68.8178 25.3261 70.4655 25.3261C72.1132 25.3261 73.2063 24.1687 73.3269 22.7219H73.3188Z" fill="#18191A"/>
<path d="M79.1378 34.1754C79.1378 36.0803 80.5685 36.5867 81.8625 36.5867C82.9235 36.5867 83.5263 36.5465 83.5263 36.5465V34.5853C83.5263 34.5853 83.0762 34.6014 82.7386 34.6014C82.1519 34.6014 81.7419 34.3442 81.7419 33.6048V28.2679H83.47V26.4996H81.7419V23.365H79.1378V26.4996H77.7473V28.2679H79.1378V34.1674V34.1754Z" fill="#18191A"/>
<path d="M90.6881 30.486C88.4537 30.7995 86.6453 31.5068 86.6453 33.7171C86.6453 35.7184 88.092 36.7955 90.1576 36.7955C91.8857 36.7955 92.6091 36.2087 93.1155 35.4451H93.1556C93.2119 35.8952 93.3084 36.3695 93.4691 36.5624H96.0411V36.4659C95.808 36.2891 95.6875 35.839 95.6875 35.0754V29.9555C95.6875 27.6005 94.4738 26.2502 91.4517 26.2502C88.4296 26.2502 87.1998 27.8015 87.1195 29.5617H89.4905C89.5709 28.5972 90.1737 28.1471 91.4276 28.1471C92.5448 28.1471 93.1155 28.6213 93.1155 29.3447C93.1155 30.1082 92.3519 30.2449 90.6881 30.478V30.486ZM93.1798 31.5068V33.0178C93.1798 33.9984 92.3358 34.9388 90.8087 34.9388C89.8683 34.9388 89.2414 34.6093 89.2414 33.6608C89.2414 32.7124 89.9246 32.407 91.3231 32.0935C91.9902 31.9408 92.7136 31.78 93.1878 31.5068H93.1798Z" fill="#18191A"/>
<path d="M89.3135 22.7219H87.7864C87.8828 24.2089 89.0402 25.3261 90.6879 25.3261C92.3356 25.3261 93.4287 24.1687 93.5493 22.7219H92.0221C91.9418 23.2524 91.4515 23.6623 90.6718 23.6623C89.8922 23.6623 89.3939 23.2926 89.3215 22.7219H89.3135Z" fill="#18191A"/>
<path d="M102.269 22.5452H99.6008V36.5626H102.269V22.5452Z" fill="#18191A"/>
<path d="M108.9 26.5076H106.232V36.5625H108.9V26.5076Z" fill="#18191A"/>
<path d="M112.822 26.5074V36.5623H115.49V30.8557C115.49 29.4813 116.35 28.5409 117.532 28.5409C118.714 28.5409 119.276 29.3044 119.276 30.3815V36.5543H121.945V29.9876C121.945 27.7934 120.554 26.2261 118.472 26.2261C117.098 26.2261 116.182 26.7967 115.49 27.8738H115.434V26.4993H112.83L112.822 26.5074Z" fill="#18191A"/>
</g>
<defs>
<clipPath id="clip0_1439_1618">
<rect width="135.802" height="36.86" fill="white"/>
</clipPath>
</defs>
</svg>
